<svg width="26" height="26" viewBox="0 0 26 26" fill="none" xmlns="http://www.w3.org/2000/svg">
<path d="M6.59448 5.44854L13.0002 11.8543L19.406 5.44854C19.56 5.30756 19.7626 5.23145 19.9714 5.23607C20.1801 5.2407 20.3791 5.3257 20.5268 5.47338C20.6744 5.62105 20.7594 5.82 20.7641 6.02879C20.7687 6.23758 20.6926 6.4401 20.5516 6.59417L14.1491 12.9999L20.5532 19.404C20.6315 19.4786 20.694 19.5681 20.7372 19.6671C20.7804 19.7662 20.8033 19.8729 20.8046 19.981C20.806 20.0891 20.7857 20.1963 20.745 20.2964C20.7043 20.3966 20.644 20.4875 20.5676 20.564C20.4912 20.6405 20.4003 20.7009 20.3003 20.7418C20.2002 20.7826 20.093 20.8031 19.9849 20.8019C19.8768 20.8007 19.7701 20.7779 19.671 20.7349C19.5718 20.6918 19.4823 20.6294 19.4076 20.5513L13.0002 14.1472L6.59448 20.5529C6.44041 20.6939 6.23789 20.77 6.0291 20.7654C5.82031 20.7608 5.62136 20.6758 5.47369 20.5281C5.32601 20.3804 5.24101 20.1815 5.23638 19.9727C5.23176 19.7639 5.30787 19.5614 5.44885 19.4073L11.8546 13.0015L5.44885 6.59417C5.37061 6.5196 5.30807 6.43015 5.2649 6.33107C5.22172 6.23199 5.19879 6.12528 5.19745 6.01721C5.19612 5.90914 5.2164 5.80189 5.2571 5.70177C5.29781 5.60165 5.35812 5.51067 5.43449 5.4342C5.51085 5.35772 5.60174 5.29728 5.7018 5.25643C5.80187 5.21558 5.90909 5.19515 6.01716 5.19634C6.12523 5.19752 6.23198 5.2203 6.33112 5.26333C6.43026 5.30637 6.5198 5.36878 6.59448 5.44692V5.44854Z" fill="black"/>
</svg>
