<svg width="27" height="30" viewBox="0 0 27 30" fill="none" xmlns="http://www.w3.org/2000/svg">
<path d="M21.1847 9.04219C20.7504 8.55327 20.2346 8.16542 19.6669 7.90081C19.0993 7.6362 18.4908 7.5 17.8764 7.5C17.2619 7.5 16.6535 7.6362 16.0858 7.90081C15.5181 8.16542 15.0024 8.55327 14.568 9.04219L14.0091 9.67093C13.8199 9.88381 13.5131 9.88381 13.3238 9.67093L12.7649 9.04219C11.8875 8.05507 10.6974 7.50051 9.45656 7.50051C8.21568 7.50051 7.02562 8.05507 6.14818 9.04219C5.27074 10.0293 4.7778 11.3681 4.7778 12.7641C4.7778 14.1601 5.27074 15.4989 6.14818 16.4861L11.6107 22.6313C12.746 23.9086 14.5869 23.9086 15.7223 22.6313L21.1847 16.4861C21.6193 15.9974 21.9641 15.4171 22.1993 14.7785C22.4345 14.1399 22.5556 13.4554 22.5556 12.7641C22.5556 12.0728 22.4345 11.3883 22.1993 10.7497C21.9641 10.1111 21.6193 9.53088 21.1847 9.04219Z" stroke="#909090" stroke-width="1.85185" stroke-linecap="round" stroke-linejoin="round"/>
</svg>
