<svg width="37" height="40" viewBox="0 0 37 40" fill="none" xmlns="http://www.w3.org/2000/svg">
<path d="M4.93156 29.4H7.35156V30.07H4.93156V29.4ZM4.85156 31.28H7.29156V31.96H4.85156V31.28ZM7.21156 27.74H8.04156V33.15H7.21156V27.74ZM4.38156 28.41H5.26156C5.26156 29.1833 5.09156 29.88 4.75156 30.5C4.41823 31.12 3.9349 31.6533 3.30156 32.1C2.6749 32.54 1.92823 32.89 1.06156 33.15L0.721563 32.49C1.48823 32.2633 2.1449 31.97 2.69156 31.61C3.23823 31.2433 3.6549 30.8233 3.94156 30.35C4.2349 29.87 4.38156 29.3433 4.38156 28.77V28.41ZM1.18156 28.41H4.94156V29.09H1.18156V28.41ZM5.10156 33.25C5.7149 33.25 6.24156 33.32 6.68156 33.46C7.12823 33.6 7.4749 33.8 7.72156 34.06C7.96823 34.32 8.09156 34.63 8.09156 34.99C8.09156 35.3567 7.96823 35.67 7.72156 35.93C7.4749 36.1833 7.12823 36.38 6.68156 36.52C6.24156 36.6667 5.7149 36.74 5.10156 36.74C4.4949 36.74 3.9649 36.6667 3.51156 36.52C3.0649 36.38 2.71823 36.1833 2.47156 35.93C2.2249 35.67 2.10156 35.3567 2.10156 34.99C2.10156 34.63 2.2249 34.32 2.47156 34.06C2.71823 33.8 3.0649 33.6 3.51156 33.46C3.9649 33.32 4.4949 33.25 5.10156 33.25ZM5.10156 33.91C4.66156 33.91 4.27823 33.9533 3.95156 34.04C3.6249 34.1267 3.37156 34.25 3.19156 34.41C3.01156 34.57 2.92156 34.7633 2.92156 34.99C2.92156 35.2167 3.01156 35.41 3.19156 35.57C3.37156 35.73 3.6249 35.8533 3.95156 35.94C4.27823 36.0267 4.66156 36.07 5.10156 36.07C5.54823 36.07 5.93156 36.0267 6.25156 35.94C6.57156 35.8533 6.82156 35.73 7.00156 35.57C7.18156 35.41 7.27156 35.2167 7.27156 34.99C7.27156 34.7633 7.18156 34.57 7.00156 34.41C6.82156 34.25 6.57156 34.1267 6.25156 34.04C5.93156 33.9533 5.54823 33.91 5.10156 33.91ZM9.80078 34.97H18.0008V35.66H9.80078V34.97ZM13.4708 33.04H14.2908V35.26H13.4708V33.04ZM10.8008 28.4H16.9808V31.14H11.6408V32.95H10.8208V30.48H16.1608V29.08H10.8008V28.4ZM10.8208 32.6H17.1908V33.28H10.8208V32.6ZM21.26 29.22H21.93V29.61C21.93 30.1233 21.8233 30.5967 21.61 31.03C21.4033 31.4633 21.11 31.84 20.73 32.16C20.35 32.48 19.9067 32.7233 19.4 32.89L19 32.23C19.4467 32.09 19.84 31.89 20.18 31.63C20.52 31.37 20.7833 31.0667 20.97 30.72C21.1633 30.3733 21.26 30.0033 21.26 29.61V29.22ZM21.4 29.22H22.08V29.61C22.08 29.97 22.17 30.3133 22.35 30.64C22.5367 30.96 22.7967 31.2467 23.13 31.5C23.4633 31.7467 23.85 31.9367 24.29 32.07L23.91 32.71C23.4033 32.5567 22.96 32.33 22.58 32.03C22.2067 31.7233 21.9167 31.3633 21.71 30.95C21.5033 30.5367 21.4 30.09 21.4 29.61V29.22ZM19.25 28.78H24.08V29.45H19.25V28.78ZM21.26 27.69H22.09V29.06H21.26V27.69ZM25.19 27.73H26.02V32.98H25.19V27.73ZM25.79 29.96H27.35V30.65H25.79V29.96ZM22.78 33.73H23.48V33.97C23.48 34.3233 23.3933 34.6533 23.22 34.96C23.0533 35.2667 22.8167 35.54 22.51 35.78C22.21 36.02 21.8633 36.22 21.47 36.38C21.0767 36.5467 20.6567 36.6667 20.21 36.74L19.9 36.1C20.2867 36.0467 20.6533 35.9533 21 35.82C21.3467 35.6867 21.6533 35.5267 21.92 35.34C22.1867 35.1467 22.3967 34.9333 22.55 34.7C22.7033 34.4667 22.78 34.2233 22.78 33.97V33.73ZM22.93 33.73H23.64V33.97C23.64 34.2233 23.7167 34.4633 23.87 34.69C24.03 34.9167 24.2433 35.1267 24.51 35.32C24.7767 35.5133 25.08 35.68 25.42 35.82C25.7667 35.9533 26.1333 36.05 26.52 36.11L26.21 36.75C25.7633 36.67 25.3433 36.5467 24.95 36.38C24.5567 36.22 24.2067 36.02 23.9 35.78C23.6 35.5333 23.3633 35.2567 23.19 34.95C23.0167 34.6433 22.93 34.3167 22.93 33.97V33.73ZM20.25 33.47H26.17V34.15H20.25V33.47ZM34.7892 27.73H35.6192V36.78H34.7892V27.73ZM32.1392 28.71H32.9592C32.9592 29.3633 32.8792 29.9933 32.7192 30.6C32.5659 31.2067 32.3226 31.7833 31.9892 32.33C31.6559 32.87 31.2226 33.3733 30.6892 33.84C30.1559 34.3067 29.5092 34.7233 28.7492 35.09L28.3092 34.42C29.1826 34 29.9026 33.51 30.4692 32.95C31.0359 32.39 31.4559 31.7667 31.7292 31.08C32.0026 30.3867 32.1392 29.64 32.1392 28.84V28.71ZM28.7292 28.71H32.4892V29.38H28.7292V28.71Z" fill="#6B4EFF"/>
<path d="M20 15.2L22.6904 12.1414C22.7301 12.1024 22.75 12.0512 22.75 12M20 8.8L22.6904 11.8586C22.7301 11.8976 22.75 11.9488 22.75 12M22.75 12C19.4696 12 15.25 12 15.25 12M19 4C23.4183 4 27 7.58172 27 12C27 16.4183 23.4183 20 19 20C14.5817 20 11 16.4183 11 12C11 7.58172 14.5817 4 19 4Z" stroke="#6B4EFF" stroke-width="1.5" stroke-linecap="round"/>
</svg>
