<svg width="27" height="30" viewBox="0 0 27 30" fill="none" xmlns="http://www.w3.org/2000/svg">
<path d="M20.8514 9.04219C20.417 8.55327 19.9013 8.16542 19.3336 7.90081C18.7659 7.6362 18.1575 7.5 17.543 7.5C16.9286 7.5 16.3201 7.6362 15.7524 7.90081C15.1848 8.16542 14.669 8.55327 14.2346 9.04219L13.6758 9.67093C13.4865 9.88381 13.1797 9.88381 12.9905 9.67093L12.4316 9.04219C11.5542 8.05507 10.3641 7.50051 9.12322 7.50051C7.88234 7.50051 6.69227 8.05507 5.81484 9.04219C4.9374 10.0293 4.44446 11.3681 4.44446 12.7641C4.44446 14.1601 4.9374 15.4989 5.81484 16.4861L11.2773 22.6313C12.4127 23.9086 14.2535 23.9087 15.3889 22.6313L20.8514 16.4861C21.286 15.9974 21.6307 15.4171 21.866 14.7785C22.1012 14.1399 22.2222 13.4554 22.2222 12.7641C22.2222 12.0728 22.1012 11.3883 21.866 10.7497C21.6307 10.1111 21.286 9.53088 20.8514 9.04219Z" fill="#4224F5" stroke="#4224F5" stroke-width="1.66667" stroke-linecap="round" stroke-linejoin="round"/>
</svg>
