<svg width="16" height="16" viewBox="0 0 16 16" fill="none" xmlns="http://www.w3.org/2000/svg">
<mask id="mask0_97_531" style="mask-type:alpha" maskUnits="userSpaceOnUse" x="0" y="0" width="16" height="16">
<path fill-rule="evenodd" clip-rule="evenodd" d="M6.42704 0.333252C3.06421 0.333252 0.333374 3.03764 0.333374 6.37948C0.333374 9.72131 3.06421 12.4257 6.42704 12.4257C7.68079 12.4257 8.84704 12.0497 9.81632 11.4049L13.7917 15.3475C14.2206 15.7729 14.9149 15.7729 15.3439 15.3475C15.7743 14.9206 15.7743 14.2273 15.3439 13.8004L11.3939 9.88304C12.1032 8.89479 12.5207 7.68523 12.5207 6.37948C12.5207 3.03764 9.78988 0.333252 6.42704 0.333252ZM2.53121 6.37948C2.53121 4.2497 4.27283 2.51847 6.42704 2.51847C8.58126 2.51847 10.3229 4.2497 10.3229 6.37948C10.3229 8.50925 8.58126 10.2405 6.42704 10.2405C4.27283 10.2405 2.53121 8.50925 2.53121 6.37948Z" fill="#006FFD"/>
</mask>
<g mask="url(#mask0_97_531)">
<rect width="16" height="16" fill="#2F3036"/>
</g>
</svg>
