<svg width="120" height="120" viewBox="0 0 120 120" fill="none" xmlns="http://www.w3.org/2000/svg">
<path d="M70.057 2.04557C76.6434 -2.37419 85.6471 0.681159 88.1695 8.20292L91.8831 19.2698C93.1093 22.9082 95.9937 25.7537 99.6606 26.9082L110.801 30.4183C118.38 32.809 121.592 41.7418 117.271 48.4006L110.918 58.1964C108.828 61.4266 108.407 65.4499 109.785 69.0417L113.978 79.9337C116.827 87.3388 111.841 95.4203 103.935 96.19L92.3035 97.3328C88.4731 97.706 85.0632 99.8984 83.113 103.21L77.2039 113.274C73.1867 120.12 63.751 121.263 58.2156 115.572L50.0644 107.21C47.3785 104.458 43.5365 103.152 39.7295 103.7L28.1567 105.368C20.2974 106.499 13.5126 99.8401 14.5169 91.9685L15.9883 80.3885C16.4671 76.5751 15.1008 72.7618 12.2981 70.1262L3.78486 62.1263C-1.9957 56.692 -1.01476 47.2461 5.77011 43.1295L15.7547 37.0538C19.0362 35.0597 21.1733 31.6078 21.4886 27.7711L22.4462 16.1328C23.0885 8.22624 31.0995 3.10678 38.5617 5.8356L49.5389 9.84721C53.1474 11.165 57.1763 10.6752 60.376 8.5411L70.0804 2.03391L70.057 2.04557Z" fill="#FFB700"/>
<path d="M62.4548 100.995C85.3313 100.995 103.876 82.4755 103.876 59.6309C103.876 36.7863 85.3313 18.2671 62.4548 18.2671C39.5783 18.2671 21.0332 36.7863 21.0332 59.6309C21.0332 82.4755 39.5783 100.995 62.4548 100.995Z" fill="#FFEB74"/>
<path opacity="0.2" d="M38.5266 80.0089C43.3444 80.0089 47.25 76.1088 47.25 71.2977C47.25 66.4866 43.3444 62.5864 38.5266 62.5864C33.7088 62.5864 29.8032 66.4866 29.8032 71.2977C29.8032 76.1088 33.7088 80.0089 38.5266 80.0089Z" fill="#FFB700"/>
<path opacity="0.2" d="M80.2507 80.0092C85.0686 80.0092 88.9741 76.109 88.9741 71.2979C88.9741 66.4868 85.0686 62.5867 80.2507 62.5867C75.4329 62.5867 71.5273 66.4868 71.5273 71.2979C71.5273 76.109 75.4329 80.0092 80.2507 80.0092Z" fill="#FFB700"/>
<path d="M55.4337 72.4025C56.3563 73.3237 57.6993 73.9418 59.2174 74.0468C61.4829 74.1984 63.5032 73.1488 64.4141 71.5278" stroke="#251700" stroke-width="2" stroke-linecap="round"/>
<path d="M46.7948 48.7938C42.4272 48.7122 41.0609 48.1407 41.1777 46.3915C41.2945 44.6422 42.6024 43.5577 47.4954 43.6393C52.4002 43.721 54.5606 45.6685 53.8482 47.8259C52.7155 50.0183 51.1623 48.8754 46.7948 48.7938V48.7938Z" fill="#FFB700"/>
<path d="M65.7357 47.8254C65.0234 45.668 67.1955 43.7205 72.0885 43.6389C76.9932 43.5572 78.2895 44.6418 78.4063 46.391C78.5231 48.1402 77.1567 48.7117 72.7892 48.7933C68.4217 48.8749 66.8568 50.0178 65.7357 47.8254V47.8254Z" fill="#FFB700"/>
<path d="M47.1916 72.2723C53.1832 72.2723 58.0403 67.4219 58.0403 61.4386C58.0403 55.4554 53.1832 50.605 47.1916 50.605C41.1999 50.605 36.3428 55.4554 36.3428 61.4386C36.3428 67.4219 41.1999 72.2723 47.1916 72.2723Z" fill="white"/>
<path d="M49.9822 69.9866C54.4194 69.9866 58.0166 66.3945 58.0166 61.9634C58.0166 57.5323 54.4194 53.9402 49.9822 53.9402C45.5449 53.9402 41.9478 57.5323 41.9478 61.9634C41.9478 66.3945 45.5449 69.9866 49.9822 69.9866Z" fill="#3C2400"/>
<path d="M43.6068 68.132C44.9354 68.132 46.0125 67.0564 46.0125 65.7297C46.0125 64.4029 44.9354 63.3274 43.6068 63.3274C42.2782 63.3274 41.2012 64.4029 41.2012 65.7297C41.2012 67.0564 42.2782 68.132 43.6068 68.132Z" fill="white"/>
<path d="M47.1912 71.5376C52.7765 71.5376 57.3043 67.0161 57.3043 61.4386C57.3043 55.8611 52.7765 51.3396 47.1912 51.3396C41.6059 51.3396 37.0781 55.8611 37.0781 61.4386C37.0781 67.0161 41.6059 71.5376 47.1912 71.5376Z" stroke="#251700" stroke-width="2"/>
<path d="M73.1051 72.2721C79.0968 72.2721 83.9539 67.4217 83.9539 61.4384C83.9539 55.4551 79.0968 50.6047 73.1051 50.6047C67.1135 50.6047 62.2563 55.4551 62.2563 61.4384C62.2563 67.4217 67.1135 72.2721 73.1051 72.2721Z" fill="white"/>
<path d="M75.8957 69.9861C80.333 69.9861 83.9301 66.394 83.9301 61.9629C83.9301 57.5318 80.333 53.9397 75.8957 53.9397C71.4585 53.9397 67.8613 57.5318 67.8613 61.9629C67.8613 66.394 71.4585 69.9861 75.8957 69.9861Z" fill="#3C2400"/>
<path d="M69.5199 68.1322C70.8485 68.1322 71.9256 67.0567 71.9256 65.7299C71.9256 64.4032 70.8485 63.3276 69.5199 63.3276C68.1913 63.3276 67.1143 64.4032 67.1143 65.7299C67.1143 67.0567 68.1913 68.1322 69.5199 68.1322Z" fill="white"/>
<path d="M73.1053 71.5371C78.6906 71.5371 83.2183 67.0156 83.2183 61.4381C83.2183 55.8606 78.6906 51.3391 73.1053 51.3391C67.52 51.3391 62.9922 55.8606 62.9922 61.4381C62.9922 67.0156 67.52 71.5371 73.1053 71.5371Z" stroke="#251700" stroke-width="2"/>
<path d="M39.3601 28.6791C39.444 27.3666 40.5752 26.3736 42.0296 26.3358L-nan -nanL-nan -nanL42.0296 26.3358C45.7774 26.2383 49.5274 27.4704 52.487 29.7717L-nan -nanL-nan -nanL52.487 29.7717C53.6355 30.6647 53.9574 32.1351 53.2466 33.2416L52.7571 34.0035C51.7739 35.534 49.919 36.4083 47.8969 36.2944L-nan -nanL-nan -nanL47.8969 36.2944C45.7546 36.1737 43.6531 35.4832 41.8567 34.3098L-nan -nanL-nan -nanL41.8567 34.3098C40.1611 33.2022 39.1862 31.3981 39.3023 29.5827L39.3601 28.6791Z" fill="#595857"/>
<path d="M39.3601 28.6791C39.444 27.3666 40.5752 26.3736 42.0296 26.3358L-nan -nanL-nan -nanL42.0296 26.3358C45.7774 26.2383 49.5274 27.4704 52.487 29.7717L-nan -nanL-nan -nanL52.487 29.7717C53.6355 30.6647 53.9574 32.1351 53.2466 33.2416L52.7571 34.0035C51.7739 35.534 49.919 36.4083 47.8969 36.2944L-nan -nanL-nan -nanL47.8969 36.2944C45.7546 36.1737 43.6531 35.4832 41.8567 34.3098L-nan -nanL-nan -nanL41.8567 34.3098C40.1611 33.2022 39.1862 31.3981 39.3023 29.5827L39.3601 28.6791Z" fill="#3C3C3C"/>
<path d="M39.3601 28.6791L39.3023 29.5827C39.2465 30.4543 39.4423 31.3233 39.8485 32.1138L47.6352 27.1812C45.8352 26.5795 43.9321 26.2863 42.0296 26.3358C40.5752 26.3736 39.444 27.3666 39.3601 28.6791Z" fill="#595857"/>
<path d="M71.9611 39.3863C72.6719 38.2798 72.3501 36.8094 71.2015 35.9164L-nan -nanL-nan -nanL71.2015 35.9164C68.2419 33.6151 64.4919 32.383 60.7442 32.4805L-nan -nanL-nan -nanL60.7442 32.4805C59.2898 32.5183 58.1586 33.5113 58.0746 34.8237L58.0168 35.7274C57.9007 37.5428 58.8756 39.3469 60.5712 40.4545L-nan -nanL-nan -nanL60.5712 40.4545C62.3677 41.6279 64.4692 42.3183 66.6115 42.439L-nan -nanL-nan -nanL66.6115 42.439C68.6335 42.553 70.4885 41.6786 71.4717 40.1481L71.9611 39.3863Z" fill="#3C3C3C"/>
<path d="M58.093 34.8402L58.0352 35.7439C57.9795 36.6154 58.1752 37.4844 58.5814 38.275L66.3681 33.3423C64.5681 32.7406 62.665 32.4475 60.7625 32.4969C59.3082 32.5348 58.1769 33.5277 58.093 34.8402Z" fill="#595857"/>
<path fill-rule="evenodd" clip-rule="evenodd" d="M56.5024 35.5482L56.5602 34.6445C56.5732 34.442 56.6026 34.2446 56.6473 34.0532C56.61 33.5342 56.451 33.0476 55.9946 32.8977C55.6189 32.7742 55.2557 32.9492 54.9547 33.2371C54.8634 33.5008 54.7396 33.7572 54.5824 34.0019L54.093 34.7637C52.8435 36.7087 50.4863 37.8198 47.9167 37.675C45.4736 37.5373 43.0771 36.7499 41.0284 35.4117C38.8737 34.0043 37.6348 31.7117 37.7823 29.4047L37.8401 28.501C37.8803 27.8729 38.0791 27.2931 38.4018 26.7922C38.3646 26.7696 38.3278 26.7463 38.2914 26.7224C37.7311 26.3554 37.4096 25.7584 37.4488 25.1581L37.4517 25.1133C37.4883 24.5523 38.031 24.1622 38.654 24.2492L44.5717 25.0753C44.6919 25.092 44.8111 25.1141 44.9291 25.1414C48.01 25.593 50.9697 26.8383 53.4337 28.7542C53.6244 28.9025 53.7999 29.0612 53.9601 29.2286C54.8669 29.873 55.7557 30.4484 56.6976 30.7579C57.64 31.0676 58.4724 31.0573 59.4891 31.0448C60.1782 31.0363 60.9521 31.0268 61.9023 31.1151C64.5813 31.2434 67.2226 31.9765 69.5876 33.236C69.6987 33.284 69.8078 33.3369 69.9145 33.3947L74.0459 35.6314C74.7274 35.783 76.8096 36.5045 78.8871 37.2243C80.0963 37.6433 81.3039 38.0617 82.2328 38.3669L82.2321 38.37C83.2491 38.7046 84.551 39.5385 83.7101 40.7266C82.9946 41.7373 81.1095 41.5859 80.0947 40.182L73.9066 38.4399C73.8987 38.4393 73.8908 38.4387 73.8829 38.438C73.8765 38.4375 73.8702 38.437 73.8638 38.4364C73.8265 39.0311 73.6427 39.6158 73.3025 40.1453L72.8131 40.9072C71.5636 42.8521 69.2064 43.9632 66.6368 43.8184C64.1937 43.6808 61.7972 42.8934 59.7485 41.5552C57.5938 40.1478 56.3549 37.8551 56.5024 35.5482ZM72.3428 37.9944C72.3077 37.2296 71.9143 36.4649 71.21 35.9172C68.2504 33.616 64.5004 32.3839 60.7526 32.4814C59.2983 32.5192 58.167 33.5121 58.0831 34.8246L58.0253 35.7283C57.9092 37.5437 58.8841 39.3478 60.5797 40.4553C62.3761 41.6287 64.4776 42.3192 66.6199 42.4399C68.642 42.5538 70.4969 41.6795 71.4801 40.149L71.9696 39.3872C72.2445 38.9592 72.365 38.4767 72.3428 37.9944ZM46.6228 26.8795C47.989 27.2411 49.3087 27.7773 50.5391 28.4741C51.2191 28.8591 51.8717 29.2931 52.4899 29.7738C53.565 30.6097 53.9158 31.9514 53.3733 33.0271C53.3409 33.0914 53.3052 33.1548 53.2663 33.2171C53.2608 33.226 53.2552 33.2348 53.2495 33.2437L52.7601 34.0056C51.8997 35.3447 50.372 36.1815 48.6489 36.2935C48.4027 36.3095 48.1526 36.3107 47.8998 36.2965C46.0253 36.1908 44.1821 35.649 42.5471 34.7291C42.3135 34.5977 42.0842 34.4585 41.8596 34.3119C40.164 33.2043 39.1891 31.4002 39.3052 29.5848L39.363 28.6811C39.3955 28.1735 39.5846 27.7136 39.8886 27.3384C40.3704 26.7434 41.1407 26.3611 42.0326 26.3379C43.5809 26.2976 45.1296 26.4843 46.6228 26.8795Z" fill="black"/>
</svg>
